<?xml version="1.0" standalone="no"?>
<!DOCTYPE svg PUBLIC "-//W3C//DTD SVG 20010904//EN"
 "http://www.w3.org/TR/2001/REC-SVG-20010904/DTD/svg10.dtd">
<svg version="1.0" xmlns="http://www.w3.org/2000/svg"
 width="360.000000pt" height="360.000000pt" viewBox="0 0 360.000000 360.000000"
 preserveAspectRatio="xMidYMid meet">

<g transform="translate(0.000000,360.000000) scale(0.100000,-0.100000)"
fill="#000000" stroke="none">
<path d="M1212 2317 l-492 -492 490 -490 489 -489 22 20 c56 50 959 957 959
963 0 3 -219 225 -488 494 l-487 487 -493 -493z m886 -100 l392 -392 -94 -94
-93 -93 -46 44 c-39 36 -55 64 -102 177 -109 265 -159 338 -257 381 -74 33
-197 33 -288 2 -115 -40 -141 -59 -180 -137 -39 -77 -76 -105 -140 -105 -45 0
-62 -12 -75 -51 -14 -41 -32 -48 -32 -14 0 36 -18 52 -38 35 -20 -17 -19 -76
4 -126 31 -69 124 -134 192 -134 31 0 244 -51 256 -62 24 -19 14 -76 -24 -150
-37 -69 -38 -75 -38 -175 0 -57 -2 -103 -5 -103 -3 0 -142 137 -310 305 l-304
305 389 390 c215 214 392 390 395 390 3 0 182 -177 398 -393z m-102 -179 c42
-83 27 -165 -38 -199 -20 -11 -21 -9 -15 20 4 17 5 31 4 31 -1 0 -38 -35 -82
-78 -105 -103 -162 -116 -221 -51 -48 53 -54 91 -29 176 18 61 64 167 70 161
2 -2 -9 -42 -25 -88 -38 -110 -40 -177 -5 -218 53 -63 112 -46 204 58 53 59
67 69 99 72 30 2 38 7 40 26 5 35 -16 88 -64 160 l-45 67 42 -45 c23 -25 52
-66 65 -92z"/>
</g>
</svg>
